<svg xmlns="http://www.w3.org/2000/svg" viewBox="0 0 32 32">
  <defs>
    <linearGradient id="gold" x1="0%" y1="0%" x2="100%" y2="100%">
      <stop offset="0%" style="stop-color:#D4AF37"/>
      <stop offset="100%" style="stop-color:#B8860B"/>
    </linearGradient>
  </defs>
  <circle cx="16" cy="16" r="16" fill="#0f172a"/>
  <!-- Saxophone body -->
  <path d="M22 6c0 0-1 1-2 3s-2 5-3 8c-1 3-2 6-4 8s-4 2-5 2c-2 0-3-1-3-3s2-3 4-3c1 0 2 0.5 2 1.5s-0.5 1.5-1.5 1.5"
        fill="none"
        stroke="url(#gold)"
        stroke-width="2.5"
        stroke-linecap="round"/>
  <!-- Mouthpiece -->
  <path d="M22 6l2-2"
        fill="none"
        stroke="url(#gold)"
        stroke-width="2"
        stroke-linecap="round"/>
  <!-- Bell flare -->
  <ellipse cx="9" cy="24" rx="4" ry="3" fill="url(#gold)" opacity="0.9"/>
  <!-- Keys (dots) -->
  <circle cx="18" cy="11" r="1" fill="url(#gold)"/>
  <circle cx="16" cy="14" r="1" fill="url(#gold)"/>
  <circle cx="14" cy="17" r="1" fill="url(#gold)"/>
</svg>
